<svg width="12" height="12" viewBox="0 0 12 12" fill="none" xmlns="http://www.w3.org/2000/svg">
<path d="M4.03125 2.71875L6 0.75L7.96875 2.71875" stroke="#404040" stroke-linecap="round" stroke-linejoin="round"/>
<path d="M6 6V0.75" stroke="#404040" stroke-linecap="round" stroke-linejoin="round"/>
<path d="M8.25 4.5H9.375C9.47446 4.5 9.56984 4.53951 9.64017 4.60984C9.71049 4.68016 9.75 4.77554 9.75 4.875V9.75C9.75 9.84946 9.71049 9.94484 9.64017 10.0152C9.56984 10.0855 9.47446 10.125 9.375 10.125H2.625C2.52554 10.125 2.43016 10.0855 2.35984 10.0152C2.28951 9.94484 2.25 9.84946 2.25 9.75V4.875C2.25 4.77554 2.28951 4.68016 2.35984 4.60984C2.43016 4.53951 2.52554 4.5 2.625 4.5H3.75" stroke="#404040" stroke-linecap="round" stroke-linejoin="round"/>
</svg>
